<mxfile host="app.diagrams.net" agent="Mozilla/5.0 (Macintosh; Intel Mac OS X 10_15_7) AppleWebKit/537.36 (KHTML, like Gecko) Chrome/132.0.0.0 Safari/537.36" version="26.0.11">
  <diagram name="Page-1" id="efa7a0a1-bf9b-a30e-e6df-94a7791c09e9">
    <mxGraphModel dx="498" dy="550" grid="1" gridSize="10" guides="1" tooltips="1" connect="1" arrows="1" fold="1" page="1" pageScale="1" pageWidth="826" pageHeight="1169" background="none" math="0" shadow="0">
      <root>
        <mxCell id="0" />
        <mxCell id="1" parent="0" />
        <mxCell id="H8drwvONT6HA2aSeFtqd-162" style="edgeStyle=none;curved=1;rounded=0;orthogonalLoop=1;jettySize=auto;html=1;entryX=0;entryY=0.25;entryDx=0;entryDy=0;fontSize=12;startSize=8;endSize=8;endArrow=none;startFill=0;" edge="1" parent="1" source="19" target="H8drwvONT6HA2aSeFtqd-161">
          <mxGeometry relative="1" as="geometry">
            <mxPoint x="629" y="595.5" as="targetPoint" />
          </mxGeometry>
        </mxCell>
        <mxCell id="H8drwvONT6HA2aSeFtqd-174" style="edgeStyle=none;curved=1;rounded=0;orthogonalLoop=1;jettySize=auto;html=1;fontSize=12;startSize=8;endSize=8;endArrow=none;startFill=0;" edge="1" parent="1" source="19">
          <mxGeometry relative="1" as="geometry">
            <mxPoint x="349" y="525" as="sourcePoint" />
            <mxPoint x="379" y="469" as="targetPoint" />
          </mxGeometry>
        </mxCell>
        <mxCell id="H8drwvONT6HA2aSeFtqd-224" style="edgeStyle=none;curved=1;rounded=0;orthogonalLoop=1;jettySize=auto;html=1;entryX=0.5;entryY=0;entryDx=0;entryDy=0;fontSize=12;startSize=8;endSize=8;endArrow=none;startFill=0;exitX=0.901;exitY=0.992;exitDx=0;exitDy=0;exitPerimeter=0;" edge="1" parent="1" source="19" target="H8drwvONT6HA2aSeFtqd-126">
          <mxGeometry relative="1" as="geometry">
            <mxPoint x="455" y="657" as="sourcePoint" />
          </mxGeometry>
        </mxCell>
        <mxCell id="H8drwvONT6HA2aSeFtqd-225" style="edgeStyle=none;curved=0;rounded=1;orthogonalLoop=1;jettySize=auto;html=1;exitX=1;exitY=0.75;exitDx=0;exitDy=0;fontSize=12;startSize=8;endSize=8;endArrow=none;startFill=0;entryX=0.94;entryY=0.007;entryDx=0;entryDy=0;entryPerimeter=0;" edge="1" parent="1" source="19" target="H8drwvONT6HA2aSeFtqd-220">
          <mxGeometry relative="1" as="geometry">
            <mxPoint x="590" y="860" as="targetPoint" />
            <Array as="points">
              <mxPoint x="610" y="624" />
            </Array>
          </mxGeometry>
        </mxCell>
        <mxCell id="19" value="&lt;p style=&quot;margin: 0px; margin-top: 4px; text-align: center; text-decoration: underline;&quot;&gt;&lt;b&gt;Gas Pump&lt;/b&gt;&lt;/p&gt;&lt;hr&gt;&lt;p class=&quot;p1&quot;&gt;&lt;/p&gt;&lt;ul&gt;&lt;li&gt;&lt;span class=&quot;s1&quot;&gt;&lt;b&gt;pumpId&lt;/b&gt;&lt;/span&gt;&amp;nbsp;&lt;/li&gt;&lt;li&gt;&lt;b&gt;location&lt;/b&gt;&lt;span style=&quot;background-color: transparent; color: light-dark(rgb(0, 51, 102), rgb(161, 205, 249));&quot;&gt;&amp;nbsp;&lt;/span&gt;&lt;/li&gt;&lt;li&gt;&lt;span style=&quot;background-color: transparent; color: light-dark(rgb(0, 51, 102), rgb(161, 205, 249));&quot; class=&quot;s1&quot;&gt;&lt;b&gt;status&lt;/b&gt;&lt;/span&gt;&lt;span style=&quot;background-color: transparent; color: light-dark(rgb(0, 51, 102), rgb(161, 205, 249));&quot;&gt;&amp;nbsp;&lt;/span&gt;&lt;/li&gt;&lt;li style=&quot;&quot;&gt;&lt;span style=&quot;background-color: transparent; color: light-dark(rgb(0, 51, 102), rgb(161, 205, 249));&quot;&gt;&lt;b&gt;fuelType&lt;/b&gt;&lt;/span&gt;&lt;/li&gt;&lt;/ul&gt;&lt;p&gt;&lt;/p&gt;" style="verticalAlign=top;align=left;overflow=fill;fontSize=12;fontFamily=Helvetica;html=1;strokeColor=#003366;shadow=1;fillColor=#D4E1F5;fontColor=#003366" parent="1" vertex="1">
          <mxGeometry x="284" y="534" width="190" height="120" as="geometry" />
        </mxCell>
        <mxCell id="H8drwvONT6HA2aSeFtqd-175" style="edgeStyle=none;curved=1;rounded=0;orthogonalLoop=1;jettySize=auto;html=1;entryX=0;entryY=0.5;entryDx=0;entryDy=0;fontSize=12;startSize=8;endSize=8;endArrow=none;startFill=0;" edge="1" parent="1" source="20">
          <mxGeometry relative="1" as="geometry">
            <mxPoint x="576" y="410.7499999999998" as="targetPoint" />
          </mxGeometry>
        </mxCell>
        <mxCell id="20" value="&lt;p style=&quot;margin: 0px; margin-top: 4px; text-align: center; text-decoration: underline;&quot;&gt;&lt;b&gt;Card Reader&lt;/b&gt;&lt;/p&gt;&lt;hr&gt;&lt;p class=&quot;p1&quot;&gt;&lt;/p&gt;&lt;ul&gt;&lt;li&gt;&lt;span class=&quot;s1&quot;&gt;&lt;b&gt;readerId&lt;/b&gt;&lt;/span&gt;&lt;/li&gt;&lt;li&gt;&lt;span style=&quot;background-color: transparent; color: light-dark(rgb(0, 51, 102), rgb(161, 205, 249));&quot; class=&quot;s1&quot;&gt;&lt;b&gt;status&lt;/b&gt;&lt;/span&gt;&lt;span style=&quot;background-color: transparent; color: light-dark(rgb(0, 51, 102), rgb(161, 205, 249));&quot;&gt;&amp;nbsp;&lt;/span&gt;&lt;/li&gt;&lt;li&gt;&lt;span style=&quot;background-color: transparent; color: light-dark(rgb(0, 51, 102), rgb(161, 205, 249));&quot;&gt;&lt;b&gt;paymentType&lt;/b&gt;&lt;/span&gt;&lt;/li&gt;&lt;/ul&gt;&lt;p&gt;&lt;/p&gt;" style="verticalAlign=top;align=left;overflow=fill;fontSize=12;fontFamily=Helvetica;html=1;strokeColor=#003366;shadow=1;fillColor=#D4E1F5;fontColor=#003366" parent="1" vertex="1">
          <mxGeometry x="309" y="354" width="140" height="115" as="geometry" />
        </mxCell>
        <mxCell id="H8drwvONT6HA2aSeFtqd-249" style="edgeStyle=none;curved=1;rounded=0;orthogonalLoop=1;jettySize=auto;html=1;fontSize=12;startSize=8;endSize=8;endArrow=none;startFill=0;" edge="1" parent="1" source="21" target="25">
          <mxGeometry relative="1" as="geometry" />
        </mxCell>
        <mxCell id="21" value="&lt;p style=&quot;margin: 0px; margin-top: 4px; text-align: center; text-decoration: underline;&quot;&gt;&lt;strong&gt;Credit Card&lt;/strong&gt;&lt;/p&gt;&lt;hr&gt;&lt;p class=&quot;p1&quot;&gt;&lt;/p&gt;&lt;ul&gt;&lt;li&gt;&lt;b&gt;cardNumber&lt;/b&gt;&lt;/li&gt;&lt;li&gt;&lt;b style=&quot;background-color: transparent; color: light-dark(rgb(0, 51, 102), rgb(161, 205, 249));&quot;&gt;expiryDate&lt;/b&gt;&lt;/li&gt;&lt;li&gt;&lt;b style=&quot;background-color: transparent; color: light-dark(rgb(0, 51, 102), rgb(161, 205, 249));&quot;&gt;cardHolderName&lt;/b&gt;&lt;/li&gt;&lt;li&gt;&lt;b&gt;securityCode&lt;/b&gt;&lt;span style=&quot;background-color: transparent; color: light-dark(rgb(0, 51, 102), rgb(161, 205, 249));&quot;&gt;&amp;nbsp;&lt;/span&gt;&lt;/li&gt;&lt;li&gt;&lt;b style=&quot;background-color: transparent; color: light-dark(rgb(0, 51, 102), rgb(161, 205, 249));&quot;&gt;isActive&lt;/b&gt;&lt;/li&gt;&lt;/ul&gt;&lt;p&gt;&lt;/p&gt;" style="verticalAlign=top;align=left;overflow=fill;fontSize=12;fontFamily=Helvetica;html=1;strokeColor=#003366;shadow=1;fillColor=#D4E1F5;fontColor=#003366" parent="1" vertex="1">
          <mxGeometry x="21" y="332" width="154" height="144" as="geometry" />
        </mxCell>
        <mxCell id="H8drwvONT6HA2aSeFtqd-138" style="edgeStyle=none;curved=0;rounded=1;orthogonalLoop=1;jettySize=auto;html=1;fontSize=12;startSize=8;endSize=8;entryX=1;entryY=0.25;entryDx=0;entryDy=0;exitX=0.585;exitY=1.024;exitDx=0;exitDy=0;exitPerimeter=0;endArrow=none;startFill=0;" edge="1" parent="1" target="19">
          <mxGeometry relative="1" as="geometry">
            <mxPoint x="688.905" y="471.7959999999998" as="sourcePoint" />
            <mxPoint x="474" y="594" as="targetPoint" />
            <Array as="points">
              <mxPoint x="689" y="565" />
              <mxPoint x="634" y="564" />
            </Array>
          </mxGeometry>
        </mxCell>
        <mxCell id="24" value="&lt;p style=&quot;text-align: center;&quot; class=&quot;p1&quot;&gt;&lt;b&gt;&lt;u&gt;Payment System&lt;/u&gt;&lt;/b&gt;&lt;/p&gt;&lt;hr&gt;&lt;p class=&quot;p1&quot;&gt;&lt;/p&gt;&lt;ul&gt;&lt;li&gt;&lt;span class=&quot;s1&quot;&gt;&lt;b&gt;systemId&lt;/b&gt;&lt;/span&gt;&lt;/li&gt;&lt;li&gt;&lt;b style=&quot;background-color: transparent; color: light-dark(rgb(0, 51, 102), rgb(161, 205, 249));&quot;&gt;name&lt;/b&gt;&lt;/li&gt;&lt;li&gt;&lt;b&gt;status&lt;/b&gt;&lt;span style=&quot;background-color: transparent; color: light-dark(rgb(0, 51, 102), rgb(161, 205, 249));&quot;&gt;&amp;nbsp;&lt;/span&gt;&lt;/li&gt;&lt;li&gt;&lt;span style=&quot;background-color: transparent; color: light-dark(rgb(0, 51, 102), rgb(161, 205, 249));&quot;&gt;&lt;b&gt;IsAuthorized&lt;/b&gt;&lt;/span&gt;&lt;/li&gt;&lt;/ul&gt;&lt;p&gt;&lt;/p&gt;" style="verticalAlign=top;align=left;overflow=fill;fontSize=12;fontFamily=Helvetica;html=1;strokeColor=#003366;shadow=1;fillColor=#D4E1F5;fontColor=#003366" parent="1" vertex="1">
          <mxGeometry x="577" y="354.5" width="193" height="167.5" as="geometry" />
        </mxCell>
        <mxCell id="H8drwvONT6HA2aSeFtqd-135" style="edgeStyle=none;curved=1;rounded=0;orthogonalLoop=1;jettySize=auto;html=1;entryX=0;entryY=0.5;entryDx=0;entryDy=0;fontSize=12;startSize=8;endSize=8;endArrow=none;startFill=0;" edge="1" parent="1" target="19">
          <mxGeometry relative="1" as="geometry">
            <mxPoint x="174" y="593.9999999999998" as="sourcePoint" />
          </mxGeometry>
        </mxCell>
        <mxCell id="H8drwvONT6HA2aSeFtqd-222" style="edgeStyle=none;curved=0;rounded=1;orthogonalLoop=1;jettySize=auto;html=1;entryX=0;entryY=0.25;entryDx=0;entryDy=0;fontSize=12;startSize=8;endSize=8;endArrow=none;startFill=0;" edge="1" parent="1" target="28">
          <mxGeometry relative="1" as="geometry">
            <mxPoint x="140" y="650" as="sourcePoint" />
            <Array as="points">
              <mxPoint x="140" y="733" />
            </Array>
          </mxGeometry>
        </mxCell>
        <mxCell id="H8drwvONT6HA2aSeFtqd-229" style="edgeStyle=none;curved=0;rounded=1;orthogonalLoop=1;jettySize=auto;html=1;exitX=0.25;exitY=1;exitDx=0;exitDy=0;entryX=0;entryY=0.5;entryDx=0;entryDy=0;fontSize=12;startSize=8;endSize=8;endArrow=none;startFill=0;" edge="1" parent="1" source="25" target="H8drwvONT6HA2aSeFtqd-144">
          <mxGeometry relative="1" as="geometry">
            <Array as="points">
              <mxPoint x="58" y="933" />
            </Array>
          </mxGeometry>
        </mxCell>
        <mxCell id="25" value="&lt;p style=&quot;margin: 0px; margin-top: 4px; text-align: center; text-decoration: underline;&quot;&gt;&lt;b&gt;Customer&lt;/b&gt;&lt;/p&gt;&lt;hr&gt;&lt;p class=&quot;p1&quot;&gt;&lt;/p&gt;&lt;ul&gt;&lt;li&gt;&lt;span class=&quot;s1&quot;&gt;&lt;b&gt;id&lt;/b&gt;&lt;/span&gt;&amp;nbsp;&lt;/li&gt;&lt;li&gt;&lt;span class=&quot;s1&quot;&gt;&lt;b&gt;name&lt;/b&gt;&lt;/span&gt;&amp;nbsp;&lt;/li&gt;&lt;/ul&gt;&lt;p&gt;&lt;/p&gt;" style="verticalAlign=top;align=left;overflow=fill;fontSize=12;fontFamily=Helvetica;html=1;strokeColor=#003366;shadow=1;fillColor=#D4E1F5;fontColor=#003366" parent="1" vertex="1">
          <mxGeometry x="19" y="534" width="155" height="120" as="geometry" />
        </mxCell>
        <mxCell id="H8drwvONT6HA2aSeFtqd-114" style="edgeStyle=none;curved=1;rounded=0;orthogonalLoop=1;jettySize=auto;html=1;entryX=0;entryY=0.5;entryDx=0;entryDy=0;fontSize=12;startSize=8;endSize=8;" edge="1" parent="1" source="25" target="25">
          <mxGeometry relative="1" as="geometry" />
        </mxCell>
        <mxCell id="H8drwvONT6HA2aSeFtqd-233" style="edgeStyle=none;curved=1;rounded=0;orthogonalLoop=1;jettySize=auto;html=1;fontSize=12;startSize=8;endSize=8;endArrow=none;startFill=0;exitX=0.827;exitY=0.986;exitDx=0;exitDy=0;exitPerimeter=0;" edge="1" parent="1" source="H8drwvONT6HA2aSeFtqd-126">
          <mxGeometry relative="1" as="geometry">
            <mxPoint x="498" y="784" as="sourcePoint" />
            <mxPoint x="498" y="900" as="targetPoint" />
          </mxGeometry>
        </mxCell>
        <mxCell id="H8drwvONT6HA2aSeFtqd-238" style="edgeStyle=none;curved=0;rounded=1;orthogonalLoop=1;jettySize=auto;html=1;entryX=1;entryY=0.5;entryDx=0;entryDy=0;fontSize=12;startSize=8;endSize=8;endArrow=none;startFill=0;" edge="1" parent="1" source="H8drwvONT6HA2aSeFtqd-126" target="H8drwvONT6HA2aSeFtqd-144">
          <mxGeometry relative="1" as="geometry">
            <Array as="points">
              <mxPoint x="455" y="860" />
              <mxPoint x="380" y="860" />
              <mxPoint x="380" y="890" />
              <mxPoint x="380" y="933" />
            </Array>
          </mxGeometry>
        </mxCell>
        <mxCell id="H8drwvONT6HA2aSeFtqd-126" value="&lt;p style=&quot;margin: 0px; margin-top: 4px; text-align: center; text-decoration: underline;&quot;&gt;&lt;b&gt;Nozzle&lt;/b&gt;&lt;/p&gt;&lt;hr&gt;&lt;p class=&quot;p1&quot;&gt;&lt;/p&gt;&lt;ul&gt;&lt;li&gt;&lt;span class=&quot;s1&quot;&gt;&lt;b&gt;nozzleId&lt;/b&gt;&lt;/span&gt;&amp;nbsp;&lt;/li&gt;&lt;li&gt;&lt;span style=&quot;background-color: transparent; color: light-dark(rgb(0, 51, 102), rgb(161, 205, 249));&quot; class=&quot;s1&quot;&gt;&lt;b&gt;fuelGrade&lt;/b&gt;&lt;/span&gt;&lt;span style=&quot;background-color: transparent; color: light-dark(rgb(0, 51, 102), rgb(161, 205, 249));&quot;&gt;&amp;nbsp;&lt;/span&gt;&lt;/li&gt;&lt;li&gt;&lt;b style=&quot;background-color: transparent; color: light-dark(rgb(0, 51, 102), rgb(161, 205, 249));&quot;&gt;status&lt;/b&gt;&lt;span style=&quot;background-color: transparent; color: light-dark(rgb(0, 51, 102), rgb(161, 205, 249));&quot; class=&quot;s2&quot;&gt;&amp;nbsp;&lt;/span&gt;&lt;/li&gt;&lt;/ul&gt;&lt;p&gt;&lt;/p&gt;" style="verticalAlign=top;align=left;overflow=fill;fontSize=12;fontFamily=Helvetica;html=1;strokeColor=#003366;shadow=1;fillColor=#D4E1F5;fontColor=#003366" vertex="1" parent="1">
          <mxGeometry x="390" y="705" width="130" height="115" as="geometry" />
        </mxCell>
        <mxCell id="H8drwvONT6HA2aSeFtqd-129" style="edgeStyle=none;curved=1;rounded=0;orthogonalLoop=1;jettySize=auto;html=1;entryX=1;entryY=0.5;entryDx=0;entryDy=0;fontSize=12;startSize=8;endSize=8;" edge="1" parent="1">
          <mxGeometry relative="1" as="geometry">
            <mxPoint x="174" y="593.9999999999998" as="sourcePoint" />
            <mxPoint x="174" y="593.9999999999998" as="targetPoint" />
          </mxGeometry>
        </mxCell>
        <mxCell id="H8drwvONT6HA2aSeFtqd-144" value="&lt;p style=&quot;margin: 0px; margin-top: 4px; text-align: center; text-decoration: underline;&quot;&gt;&lt;b&gt;Car&lt;/b&gt;&lt;/p&gt;&lt;hr&gt;&lt;p class=&quot;p1&quot;&gt;&lt;/p&gt;&lt;ul&gt;&lt;li&gt;&lt;span class=&quot;s1&quot;&gt;&lt;b&gt;carId&lt;/b&gt;&lt;/span&gt;&amp;nbsp;&lt;/li&gt;&lt;li&gt;&lt;b&gt;licensePlate&lt;/b&gt;&lt;span style=&quot;background-color: transparent; color: light-dark(rgb(0, 51, 102), rgb(161, 205, 249));&quot;&gt;&amp;nbsp;&lt;/span&gt;&lt;/li&gt;&lt;li&gt;&lt;b style=&quot;background-color: transparent; color: light-dark(rgb(0, 51, 102), rgb(161, 205, 249));&quot;&gt;make&lt;/b&gt;&lt;span style=&quot;background-color: transparent; color: light-dark(rgb(0, 51, 102), rgb(161, 205, 249));&quot; class=&quot;s2&quot;&gt; / &lt;/span&gt;&lt;b style=&quot;background-color: transparent; color: light-dark(rgb(0, 51, 102), rgb(161, 205, 249));&quot;&gt;model&lt;/b&gt;&lt;/li&gt;&lt;/ul&gt;&lt;p&gt;&lt;/p&gt;" style="verticalAlign=top;align=left;overflow=fill;fontSize=12;fontFamily=Helvetica;html=1;strokeColor=#003366;shadow=1;fillColor=#D4E1F5;fontColor=#003366" vertex="1" parent="1">
          <mxGeometry x="174" y="868" width="180" height="130" as="geometry" />
        </mxCell>
        <mxCell id="H8drwvONT6HA2aSeFtqd-221" style="edgeStyle=none;curved=1;rounded=0;orthogonalLoop=1;jettySize=auto;html=1;fontSize=12;startSize=8;endSize=8;endArrow=none;startFill=0;" edge="1" parent="1">
          <mxGeometry relative="1" as="geometry">
            <mxPoint x="317" y="708" as="sourcePoint" />
            <mxPoint x="317" y="653" as="targetPoint" />
          </mxGeometry>
        </mxCell>
        <mxCell id="28" value="&lt;p style=&quot;margin: 0px; margin-top: 4px; text-align: center; text-decoration: underline;&quot;&gt;&lt;strong&gt;Display&lt;/strong&gt;&lt;/p&gt;&lt;hr&gt;&lt;p class=&quot;p1&quot;&gt;&lt;/p&gt;&lt;ul&gt;&lt;li&gt;&lt;span class=&quot;s1&quot;&gt;&lt;b&gt;displayId&lt;/b&gt;&lt;/span&gt;&amp;nbsp;&lt;/li&gt;&lt;li&gt;&lt;b&gt;displayType&lt;/b&gt;&lt;span style=&quot;background-color: transparent; color: light-dark(rgb(0, 51, 102), rgb(161, 205, 249));&quot;&gt;&amp;nbsp;&lt;/span&gt;&lt;/li&gt;&lt;li&gt;&lt;b style=&quot;background-color: transparent; color: light-dark(rgb(0, 51, 102), rgb(161, 205, 249));&quot;&gt;currentMessage&lt;/b&gt;&lt;span style=&quot;background-color: transparent; color: light-dark(rgb(0, 51, 102), rgb(161, 205, 249));&quot; class=&quot;s2&quot;&gt;&amp;nbsp;&lt;/span&gt;&lt;/li&gt;&lt;/ul&gt;&lt;p&gt;&lt;/p&gt;" style="verticalAlign=top;align=left;overflow=fill;fontSize=12;fontFamily=Helvetica;html=1;strokeColor=#003366;shadow=1;fillColor=#D4E1F5;fontColor=#003366" parent="1" vertex="1">
          <mxGeometry x="220" y="705" width="154" height="110" as="geometry" />
        </mxCell>
        <mxCell id="H8drwvONT6HA2aSeFtqd-151" value="inserts" style="text;html=1;align=center;verticalAlign=middle;whiteSpace=wrap;rounded=0;" vertex="1" parent="1">
          <mxGeometry x="208" y="387" width="60" height="30" as="geometry" />
        </mxCell>
        <mxCell id="H8drwvONT6HA2aSeFtqd-153" value="owns" style="text;html=1;align=center;verticalAlign=middle;whiteSpace=wrap;rounded=0;" vertex="1" parent="1">
          <mxGeometry x="99" y="480" width="60" height="30" as="geometry" />
        </mxCell>
        <mxCell id="H8drwvONT6HA2aSeFtqd-154" value="attached" style="text;html=1;align=center;verticalAlign=middle;whiteSpace=wrap;rounded=0;" vertex="1" parent="1">
          <mxGeometry x="376" y="488" width="60" height="30" as="geometry" />
        </mxCell>
        <mxCell id="H8drwvONT6HA2aSeFtqd-155" value="attached" style="text;html=1;align=center;verticalAlign=middle;whiteSpace=wrap;rounded=0;" vertex="1" parent="1">
          <mxGeometry x="452" y="666" width="60" height="30" as="geometry" />
        </mxCell>
        <mxCell id="H8drwvONT6HA2aSeFtqd-156" value="attached" style="text;html=1;align=center;verticalAlign=middle;whiteSpace=wrap;rounded=0;" vertex="1" parent="1">
          <mxGeometry x="315" y="666" width="60" height="30" as="geometry" />
        </mxCell>
        <mxCell id="H8drwvONT6HA2aSeFtqd-160" value="uses" style="text;html=1;align=center;verticalAlign=middle;whiteSpace=wrap;rounded=0;" vertex="1" parent="1">
          <mxGeometry x="88" y="806" width="60" height="30" as="geometry" />
        </mxCell>
        <mxCell id="H8drwvONT6HA2aSeFtqd-161" value="&lt;p style=&quot;margin: 0px; margin-top: 4px; text-align: center; text-decoration: underline;&quot;&gt;&lt;b&gt;Printer&lt;/b&gt;&lt;/p&gt;&lt;hr&gt;&lt;p class=&quot;p1&quot;&gt;&lt;/p&gt;&lt;ul&gt;&lt;li&gt;&lt;span class=&quot;s1&quot;&gt;&lt;b&gt;printerId&lt;/b&gt;&lt;/span&gt;&lt;/li&gt;&lt;li&gt;&lt;b style=&quot;background-color: transparent; color: light-dark(rgb(0, 51, 102), rgb(161, 205, 249));&quot;&gt;status&lt;/b&gt;&lt;span style=&quot;background-color: transparent; color: light-dark(rgb(0, 51, 102), rgb(161, 205, 249));&quot; class=&quot;s2&quot;&gt;&amp;nbsp;&lt;/span&gt;&lt;/li&gt;&lt;/ul&gt;&lt;p&gt;&lt;/p&gt;" style="verticalAlign=top;align=left;overflow=fill;fontSize=12;fontFamily=Helvetica;html=1;strokeColor=#003366;shadow=1;fillColor=#D4E1F5;fontColor=#003366" vertex="1" parent="1">
          <mxGeometry x="628" y="577" width="140" height="72" as="geometry" />
        </mxCell>
        <mxCell id="H8drwvONT6HA2aSeFtqd-251" style="edgeStyle=none;curved=1;rounded=0;orthogonalLoop=1;jettySize=auto;html=1;exitX=0.5;exitY=0;exitDx=0;exitDy=0;entryX=0.5;entryY=1;entryDx=0;entryDy=0;fontSize=12;startSize=8;endSize=8;" edge="1" parent="1" source="H8drwvONT6HA2aSeFtqd-163" target="H8drwvONT6HA2aSeFtqd-161">
          <mxGeometry relative="1" as="geometry" />
        </mxCell>
        <mxCell id="H8drwvONT6HA2aSeFtqd-163" value="&lt;p style=&quot;margin: 0px; margin-top: 4px; text-align: center; text-decoration: underline;&quot;&gt;&lt;b&gt;Receipt&lt;/b&gt;&lt;/p&gt;&lt;hr&gt;&lt;p class=&quot;p1&quot;&gt;&lt;/p&gt;&lt;ul&gt;&lt;li&gt;&lt;span class=&quot;s1&quot;&gt;&lt;b&gt;receiptId&lt;/b&gt;&lt;/span&gt;&amp;nbsp;&lt;/li&gt;&lt;li&gt;&lt;b&gt;timestamp&lt;/b&gt;&lt;span style=&quot;background-color: transparent; color: light-dark(rgb(0, 51, 102), rgb(161, 205, 249));&quot;&gt;&amp;nbsp;&lt;/span&gt;&lt;/li&gt;&lt;li&gt;&lt;b style=&quot;background-color: transparent; color: light-dark(rgb(0, 51, 102), rgb(161, 205, 249));&quot;&gt;amountCharged&lt;/b&gt;&lt;/li&gt;&lt;li&gt;&lt;b&gt;fuelVolume&lt;/b&gt;&lt;span style=&quot;background-color: transparent; color: light-dark(rgb(0, 51, 102), rgb(161, 205, 249));&quot;&gt;&amp;nbsp;&lt;/span&gt;&lt;/li&gt;&lt;/ul&gt;&lt;p&gt;&lt;/p&gt;" style="verticalAlign=top;align=left;overflow=fill;fontSize=12;fontFamily=Helvetica;html=1;strokeColor=#003366;shadow=1;fillColor=#D4E1F5;fontColor=#003366" vertex="1" parent="1">
          <mxGeometry x="628" y="697" width="140" height="110" as="geometry" />
        </mxCell>
        <mxCell id="H8drwvONT6HA2aSeFtqd-166" value="prints" style="text;html=1;align=center;verticalAlign=middle;whiteSpace=wrap;rounded=0;" vertex="1" parent="1">
          <mxGeometry x="689" y="656" width="60" height="30" as="geometry" />
        </mxCell>
        <mxCell id="H8drwvONT6HA2aSeFtqd-167" value="attached" style="text;html=1;align=center;verticalAlign=middle;whiteSpace=wrap;rounded=0;" vertex="1" parent="1">
          <mxGeometry x="517" y="588" width="60" height="30" as="geometry" />
        </mxCell>
        <mxCell id="H8drwvONT6HA2aSeFtqd-168" value="owns" style="text;html=1;align=center;verticalAlign=middle;whiteSpace=wrap;rounded=0;" vertex="1" parent="1">
          <mxGeometry x="39" y="901" width="80" height="40" as="geometry" />
        </mxCell>
        <mxCell id="H8drwvONT6HA2aSeFtqd-169" value="reads" style="text;html=1;align=center;verticalAlign=middle;whiteSpace=wrap;rounded=0;" vertex="1" parent="1">
          <mxGeometry x="148" y="705" width="60" height="30" as="geometry" />
        </mxCell>
        <mxCell id="H8drwvONT6HA2aSeFtqd-170" value="selects" style="text;html=1;align=center;verticalAlign=middle;whiteSpace=wrap;rounded=0;" vertex="1" parent="1">
          <mxGeometry x="196" y="569" width="60" height="30" as="geometry" />
        </mxCell>
        <mxCell id="H8drwvONT6HA2aSeFtqd-171" value="fuels" style="text;html=1;align=center;verticalAlign=middle;whiteSpace=wrap;rounded=0;" vertex="1" parent="1">
          <mxGeometry x="370" y="856" width="60" height="30" as="geometry" />
        </mxCell>
        <mxCell id="H8drwvONT6HA2aSeFtqd-172" value="approves payments or refunds" style="text;html=1;align=center;verticalAlign=middle;whiteSpace=wrap;rounded=0;" vertex="1" parent="1">
          <mxGeometry x="576" y="534" width="110" height="30" as="geometry" />
        </mxCell>
        <mxCell id="H8drwvONT6HA2aSeFtqd-176" value="&lt;p class=&quot;p1&quot;&gt;communicates with&lt;span style=&quot;&quot; class=&quot;Apple-converted-space&quot;&gt;&amp;nbsp;&lt;/span&gt;&lt;/p&gt;" style="text;html=1;align=center;verticalAlign=middle;whiteSpace=wrap;rounded=0;" vertex="1" parent="1">
          <mxGeometry x="459.5" y="402" width="103" height="50" as="geometry" />
        </mxCell>
        <mxCell id="H8drwvONT6HA2aSeFtqd-182" value="1...*" style="edgeLabel;html=1;align=center;verticalAlign=middle;resizable=0;points=[];fontSize=12;labelBackgroundColor=none;" vertex="1" connectable="0" parent="1">
          <mxGeometry x="91.99894915623497" y="568.0031303665456" as="geometry">
            <mxPoint x="-9" y="-82" as="offset" />
          </mxGeometry>
        </mxCell>
        <mxCell id="H8drwvONT6HA2aSeFtqd-184" value="1" style="edgeLabel;html=1;align=center;verticalAlign=middle;resizable=0;points=[];fontSize=12;labelBackgroundColor=none;" vertex="1" connectable="0" parent="1">
          <mxGeometry x="190.99894915623497" y="501.00313036654563" as="geometry">
            <mxPoint x="-9" y="-82" as="offset" />
          </mxGeometry>
        </mxCell>
        <mxCell id="H8drwvONT6HA2aSeFtqd-185" value="1" style="edgeLabel;html=1;align=center;verticalAlign=middle;resizable=0;points=[];fontSize=12;labelBackgroundColor=none;" vertex="1" connectable="0" parent="1">
          <mxGeometry x="310.99894915623497" y="502.00313036654563" as="geometry">
            <mxPoint x="-9" y="-82" as="offset" />
          </mxGeometry>
        </mxCell>
        <mxCell id="H8drwvONT6HA2aSeFtqd-186" value="1" style="edgeLabel;html=1;align=center;verticalAlign=middle;resizable=0;points=[];fontSize=12;labelBackgroundColor=none;" vertex="1" connectable="0" parent="1">
          <mxGeometry x="189.99894915623497" y="687.0031303665456" as="geometry">
            <mxPoint x="-9" y="-82" as="offset" />
          </mxGeometry>
        </mxCell>
        <mxCell id="H8drwvONT6HA2aSeFtqd-187" value="1" style="edgeLabel;html=1;align=center;verticalAlign=middle;resizable=0;points=[];fontSize=12;labelBackgroundColor=none;" vertex="1" connectable="0" parent="1">
          <mxGeometry x="284.99894915623497" y="687.0031303665456" as="geometry">
            <mxPoint x="-9" y="-82" as="offset" />
          </mxGeometry>
        </mxCell>
        <mxCell id="H8drwvONT6HA2aSeFtqd-188" value="1" style="edgeLabel;html=1;align=center;verticalAlign=middle;resizable=0;points=[];fontSize=12;labelBackgroundColor=none;" vertex="1" connectable="0" parent="1">
          <mxGeometry x="112.99894915623497" y="746.0031303665456" as="geometry">
            <mxPoint x="-9" y="-82" as="offset" />
          </mxGeometry>
        </mxCell>
        <mxCell id="H8drwvONT6HA2aSeFtqd-189" value="1" style="edgeLabel;html=1;align=center;verticalAlign=middle;resizable=0;points=[];fontSize=12;labelBackgroundColor=none;" vertex="1" connectable="0" parent="1">
          <mxGeometry x="416.99894915623497" y="911.0031303665456" as="geometry">
            <mxPoint x="-9" y="-82" as="offset" />
          </mxGeometry>
        </mxCell>
        <mxCell id="H8drwvONT6HA2aSeFtqd-190" value="1" style="edgeLabel;html=1;align=center;verticalAlign=middle;resizable=0;points=[];fontSize=12;labelBackgroundColor=none;" vertex="1" connectable="0" parent="1">
          <mxGeometry x="56.99894915623497" y="746.0031303665456" as="geometry">
            <mxPoint x="-9" y="-82" as="offset" />
          </mxGeometry>
        </mxCell>
        <mxCell id="H8drwvONT6HA2aSeFtqd-192" value="1...*" style="edgeLabel;html=1;align=center;verticalAlign=middle;resizable=0;points=[];fontSize=12;labelBackgroundColor=none;" vertex="1" connectable="0" parent="1">
          <mxGeometry x="167.99894915623497" y="1027.0031303665455" as="geometry">
            <mxPoint x="-9" y="-82" as="offset" />
          </mxGeometry>
        </mxCell>
        <mxCell id="H8drwvONT6HA2aSeFtqd-193" value="1" style="edgeLabel;html=1;align=center;verticalAlign=middle;resizable=0;points=[];fontSize=12;labelBackgroundColor=none;" vertex="1" connectable="0" parent="1">
          <mxGeometry x="157.99894915623497" y="746.0031303665456" as="geometry">
            <mxPoint x="-9" y="-82" as="offset" />
          </mxGeometry>
        </mxCell>
        <mxCell id="H8drwvONT6HA2aSeFtqd-194" value="1" style="edgeLabel;html=1;align=center;verticalAlign=middle;resizable=0;points=[];fontSize=12;labelBackgroundColor=none;" vertex="1" connectable="0" parent="1">
          <mxGeometry x="219.99894915623497" y="806.0031303665456" as="geometry">
            <mxPoint x="-9" y="-82" as="offset" />
          </mxGeometry>
        </mxCell>
        <mxCell id="H8drwvONT6HA2aSeFtqd-195" value="1" style="edgeLabel;html=1;align=center;verticalAlign=middle;resizable=0;points=[];fontSize=12;labelBackgroundColor=none;" vertex="1" connectable="0" parent="1">
          <mxGeometry x="316.99894915623497" y="744.0031303665456" as="geometry">
            <mxPoint x="-9" y="-82" as="offset" />
          </mxGeometry>
        </mxCell>
        <mxCell id="H8drwvONT6HA2aSeFtqd-196" value="1" style="edgeLabel;html=1;align=center;verticalAlign=middle;resizable=0;points=[];fontSize=12;labelBackgroundColor=none;" vertex="1" connectable="0" parent="1">
          <mxGeometry x="316.99894915623497" y="780.0031303665456" as="geometry">
            <mxPoint x="-9" y="-82" as="offset" />
          </mxGeometry>
        </mxCell>
        <mxCell id="H8drwvONT6HA2aSeFtqd-197" value="1" style="edgeLabel;html=1;align=center;verticalAlign=middle;resizable=0;points=[];fontSize=12;labelBackgroundColor=none;" vertex="1" connectable="0" parent="1">
          <mxGeometry x="382.99894915623497" y="559.0031303665456" as="geometry">
            <mxPoint x="-9" y="-82" as="offset" />
          </mxGeometry>
        </mxCell>
        <mxCell id="H8drwvONT6HA2aSeFtqd-198" value="1" style="edgeLabel;html=1;align=center;verticalAlign=middle;resizable=0;points=[];fontSize=12;labelBackgroundColor=none;" vertex="1" connectable="0" parent="1">
          <mxGeometry x="382.99894915623497" y="609.0031303665456" as="geometry">
            <mxPoint x="-9" y="-82" as="offset" />
          </mxGeometry>
        </mxCell>
        <mxCell id="H8drwvONT6HA2aSeFtqd-199" value="1" style="edgeLabel;html=1;align=center;verticalAlign=middle;resizable=0;points=[];fontSize=12;labelBackgroundColor=none;" vertex="1" connectable="0" parent="1">
          <mxGeometry x="455.99894915623497" y="744.0031303665456" as="geometry">
            <mxPoint x="-9" y="-82" as="offset" />
          </mxGeometry>
        </mxCell>
        <mxCell id="H8drwvONT6HA2aSeFtqd-200" value="1...*" style="edgeLabel;html=1;align=center;verticalAlign=middle;resizable=0;points=[];fontSize=12;labelBackgroundColor=none;" vertex="1" connectable="0" parent="1">
          <mxGeometry x="449.99894915623497" y="779.0031303665456" as="geometry">
            <mxPoint x="-9" y="-82" as="offset" />
          </mxGeometry>
        </mxCell>
        <mxCell id="H8drwvONT6HA2aSeFtqd-201" value="1" style="edgeLabel;html=1;align=center;verticalAlign=middle;resizable=0;points=[];fontSize=12;labelBackgroundColor=none;" vertex="1" connectable="0" parent="1">
          <mxGeometry x="490.99894915623497" y="685.0031303665456" as="geometry">
            <mxPoint x="-9" y="-82" as="offset" />
          </mxGeometry>
        </mxCell>
        <mxCell id="H8drwvONT6HA2aSeFtqd-202" value="1" style="edgeLabel;html=1;align=center;verticalAlign=middle;resizable=0;points=[];fontSize=12;labelBackgroundColor=none;" vertex="1" connectable="0" parent="1">
          <mxGeometry x="629.998949156235" y="686.0031303665456" as="geometry">
            <mxPoint x="-9" y="-82" as="offset" />
          </mxGeometry>
        </mxCell>
        <mxCell id="H8drwvONT6HA2aSeFtqd-203" value="1" style="edgeLabel;html=1;align=center;verticalAlign=middle;resizable=0;points=[];fontSize=12;labelBackgroundColor=none;" vertex="1" connectable="0" parent="1">
          <mxGeometry x="466.99894915623497" y="482.00313036654563" as="geometry">
            <mxPoint x="-9" y="-82" as="offset" />
          </mxGeometry>
        </mxCell>
        <mxCell id="H8drwvONT6HA2aSeFtqd-204" value="1" style="edgeLabel;html=1;align=center;verticalAlign=middle;resizable=0;points=[];fontSize=12;labelBackgroundColor=none;" vertex="1" connectable="0" parent="1">
          <mxGeometry x="576.998949156235" y="482.0031303665455" as="geometry">
            <mxPoint x="-9" y="-82" as="offset" />
          </mxGeometry>
        </mxCell>
        <mxCell id="H8drwvONT6HA2aSeFtqd-205" value="1" style="edgeLabel;html=1;align=center;verticalAlign=middle;resizable=0;points=[];fontSize=12;labelBackgroundColor=none;" vertex="1" connectable="0" parent="1">
          <mxGeometry x="497.99894915623497" y="995.0031303665455" as="geometry">
            <mxPoint x="-9" y="-82" as="offset" />
          </mxGeometry>
        </mxCell>
        <mxCell id="H8drwvONT6HA2aSeFtqd-206" value="1" style="edgeLabel;html=1;align=center;verticalAlign=middle;resizable=0;points=[];fontSize=12;labelBackgroundColor=none;" vertex="1" connectable="0" parent="1">
          <mxGeometry x="371.99894915623497" y="1006.0031303665455" as="geometry">
            <mxPoint x="-9" y="-82" as="offset" />
          </mxGeometry>
        </mxCell>
        <mxCell id="H8drwvONT6HA2aSeFtqd-207" value="1" style="edgeLabel;html=1;align=center;verticalAlign=middle;resizable=0;points=[];fontSize=12;labelBackgroundColor=none;" vertex="1" connectable="0" parent="1">
          <mxGeometry x="695.998949156235" y="739.0031303665456" as="geometry">
            <mxPoint x="-9" y="-82" as="offset" />
          </mxGeometry>
        </mxCell>
        <mxCell id="H8drwvONT6HA2aSeFtqd-208" value="1" style="edgeLabel;html=1;align=center;verticalAlign=middle;resizable=0;points=[];fontSize=12;labelBackgroundColor=none;" vertex="1" connectable="0" parent="1">
          <mxGeometry x="696.998949156235" y="770.0031303665456" as="geometry">
            <mxPoint x="-9" y="-82" as="offset" />
          </mxGeometry>
        </mxCell>
        <mxCell id="H8drwvONT6HA2aSeFtqd-210" value="1" style="edgeLabel;html=1;align=center;verticalAlign=middle;resizable=0;points=[];fontSize=12;labelBackgroundColor=none;" vertex="1" connectable="0" parent="1">
          <mxGeometry x="704.998949156235" y="612.0031303665455" as="geometry">
            <mxPoint x="-9" y="-82" as="offset" />
          </mxGeometry>
        </mxCell>
        <mxCell id="H8drwvONT6HA2aSeFtqd-211" value="1...*" style="edgeLabel;html=1;align=center;verticalAlign=middle;resizable=0;points=[];fontSize=12;labelBackgroundColor=none;" vertex="1" connectable="0" parent="1">
          <mxGeometry x="497.99894915623497" y="638.0031303665455" as="geometry">
            <mxPoint x="-9" y="-82" as="offset" />
          </mxGeometry>
        </mxCell>
        <mxCell id="H8drwvONT6HA2aSeFtqd-253" style="edgeStyle=none;curved=0;rounded=1;orthogonalLoop=1;jettySize=auto;html=1;exitX=0.75;exitY=0;exitDx=0;exitDy=0;entryX=1;entryY=0.5;entryDx=0;entryDy=0;fontSize=12;startSize=8;endSize=8;endArrow=none;startFill=0;" edge="1" parent="1" source="H8drwvONT6HA2aSeFtqd-212" target="24">
          <mxGeometry relative="1" as="geometry">
            <Array as="points">
              <mxPoint x="780" y="440" />
            </Array>
          </mxGeometry>
        </mxCell>
        <mxCell id="H8drwvONT6HA2aSeFtqd-212" value="&lt;p style=&quot;margin: 0px; margin-top: 4px; text-align: center; text-decoration: underline;&quot;&gt;&lt;b&gt;Refund Request&lt;/b&gt;&lt;/p&gt;&lt;hr&gt;&lt;p class=&quot;p1&quot;&gt;&lt;/p&gt;&lt;ul&gt;&lt;li&gt;&lt;span class=&quot;s1&quot;&gt;&lt;b&gt;refundRequestId&lt;/b&gt;&lt;/span&gt;&lt;/li&gt;&lt;li&gt;&lt;b style=&quot;background-color: transparent; color: light-dark(rgb(0, 51, 102), rgb(161, 205, 249));&quot;&gt;requestedAmount&lt;/b&gt;&lt;/li&gt;&lt;li&gt;&lt;b&gt;reason&lt;/b&gt;&lt;span style=&quot;background-color: transparent; color: light-dark(rgb(0, 51, 102), rgb(161, 205, 249));&quot;&gt;&amp;nbsp;&lt;/span&gt;&lt;/li&gt;&lt;li&gt;&lt;b&gt;status&lt;/b&gt;&lt;span style=&quot;background-color: transparent; color: light-dark(rgb(0, 51, 102), rgb(161, 205, 249));&quot;&gt;&amp;nbsp;&lt;/span&gt;&lt;/li&gt;&lt;li&gt;&lt;b&gt;timestamp&lt;/b&gt;&lt;/li&gt;&lt;/ul&gt;&lt;p&gt;&lt;/p&gt;" style="verticalAlign=top;align=left;overflow=fill;fontSize=12;fontFamily=Helvetica;html=1;strokeColor=#003366;shadow=1;fillColor=#D4E1F5;fontColor=#003366" vertex="1" parent="1">
          <mxGeometry x="650" y="842" width="170" height="145" as="geometry" />
        </mxCell>
        <mxCell id="H8drwvONT6HA2aSeFtqd-216" value="1" style="edgeLabel;html=1;align=center;verticalAlign=middle;resizable=0;points=[];fontSize=12;labelBackgroundColor=none;" vertex="1" connectable="0" parent="1">
          <mxGeometry x="611.998949156235" y="973.0031303665456" as="geometry">
            <mxPoint x="-9" y="-82" as="offset" />
          </mxGeometry>
        </mxCell>
        <mxCell id="H8drwvONT6HA2aSeFtqd-217" value="1" style="edgeLabel;html=1;align=center;verticalAlign=middle;resizable=0;points=[];fontSize=12;labelBackgroundColor=none;" vertex="1" connectable="0" parent="1">
          <mxGeometry x="455.99894915623497" y="911.0031303665455" as="geometry">
            <mxPoint x="-9" y="-82" as="offset" />
          </mxGeometry>
        </mxCell>
        <mxCell id="H8drwvONT6HA2aSeFtqd-219" style="edgeStyle=none;curved=0;rounded=1;orthogonalLoop=1;jettySize=auto;html=1;fontSize=12;startSize=8;endSize=8;endArrow=none;startFill=0;entryX=0.085;entryY=0.986;entryDx=0;entryDy=0;entryPerimeter=0;" edge="1" parent="1" source="25" target="H8drwvONT6HA2aSeFtqd-126">
          <mxGeometry relative="1" as="geometry">
            <mxPoint x="399" y="820" as="targetPoint" />
            <Array as="points">
              <mxPoint x="97" y="830" />
              <mxPoint x="400" y="830" />
            </Array>
          </mxGeometry>
        </mxCell>
        <mxCell id="H8drwvONT6HA2aSeFtqd-241" style="edgeStyle=none;curved=0;rounded=1;orthogonalLoop=1;jettySize=auto;html=1;fontSize=12;startSize=8;endSize=8;exitX=1.002;exitY=0.909;exitDx=0;exitDy=0;exitPerimeter=0;endArrow=none;startFill=0;" edge="1" parent="1" source="H8drwvONT6HA2aSeFtqd-220" target="H8drwvONT6HA2aSeFtqd-212">
          <mxGeometry relative="1" as="geometry">
            <Array as="points">
              <mxPoint x="735" y="1020" />
            </Array>
          </mxGeometry>
        </mxCell>
        <mxCell id="H8drwvONT6HA2aSeFtqd-220" value="&lt;p style=&quot;text-align: center;&quot; class=&quot;p1&quot;&gt;&lt;b&gt;&lt;u&gt;Fuelling System&lt;/u&gt;&lt;/b&gt;&lt;/p&gt;&lt;hr&gt;&lt;p class=&quot;p1&quot;&gt;&lt;/p&gt;&lt;ul&gt;&lt;li&gt;&lt;span class=&quot;s1&quot;&gt;&lt;b&gt;systemId&lt;/b&gt;&lt;/span&gt;&lt;/li&gt;&lt;li&gt;&lt;b&gt;status&lt;/b&gt;&lt;span style=&quot;background-color: transparent; color: light-dark(rgb(0, 51, 102), rgb(161, 205, 249));&quot;&gt;&amp;nbsp;&lt;/span&gt;&lt;/li&gt;&lt;/ul&gt;&lt;p&gt;&lt;/p&gt;" style="verticalAlign=top;align=left;overflow=fill;fontSize=12;fontFamily=Helvetica;html=1;strokeColor=#003366;shadow=1;fillColor=#D4E1F5;fontColor=#003366" vertex="1" parent="1">
          <mxGeometry x="398.5" y="901" width="225" height="130" as="geometry" />
        </mxCell>
        <mxCell id="H8drwvONT6HA2aSeFtqd-226" value="built-in" style="text;html=1;align=center;verticalAlign=middle;whiteSpace=wrap;rounded=0;" vertex="1" parent="1">
          <mxGeometry x="560" y="738" width="60" height="30" as="geometry" />
        </mxCell>
        <mxCell id="H8drwvONT6HA2aSeFtqd-227" value="1...*" style="edgeLabel;html=1;align=center;verticalAlign=middle;resizable=0;points=[];fontSize=12;labelBackgroundColor=none;" vertex="1" connectable="0" parent="1">
          <mxGeometry x="497.99894915623497" y="715.0031303665455" as="geometry">
            <mxPoint x="-9" y="-82" as="offset" />
          </mxGeometry>
        </mxCell>
        <mxCell id="H8drwvONT6HA2aSeFtqd-228" value="1...*" style="edgeLabel;html=1;align=center;verticalAlign=middle;resizable=0;points=[];fontSize=12;labelBackgroundColor=none;" vertex="1" connectable="0" parent="1">
          <mxGeometry x="493.99894915623497" y="911.0031303665456" as="geometry">
            <mxPoint x="-9" y="-82" as="offset" />
          </mxGeometry>
        </mxCell>
        <mxCell id="H8drwvONT6HA2aSeFtqd-237" value="communicates with" style="text;html=1;align=center;verticalAlign=middle;whiteSpace=wrap;rounded=0;" vertex="1" parent="1">
          <mxGeometry x="512" y="838" width="60" height="30" as="geometry" />
        </mxCell>
        <mxCell id="H8drwvONT6HA2aSeFtqd-240" value="1" style="edgeLabel;html=1;align=center;verticalAlign=middle;resizable=0;points=[];fontSize=12;labelBackgroundColor=none;" vertex="1" connectable="0" parent="1">
          <mxGeometry x="499.99894915623497" y="973.0031303665456" as="geometry">
            <mxPoint x="-9" y="-82" as="offset" />
          </mxGeometry>
        </mxCell>
        <mxCell id="H8drwvONT6HA2aSeFtqd-242" value="1" style="edgeLabel;html=1;align=center;verticalAlign=middle;resizable=0;points=[];fontSize=12;labelBackgroundColor=none;" vertex="1" connectable="0" parent="1">
          <mxGeometry x="639.998949156235" y="1092.0031303665455" as="geometry">
            <mxPoint x="-9" y="-82" as="offset" />
          </mxGeometry>
        </mxCell>
        <mxCell id="H8drwvONT6HA2aSeFtqd-243" value="1" style="edgeLabel;html=1;align=center;verticalAlign=middle;resizable=0;points=[];fontSize=12;labelBackgroundColor=none;" vertex="1" connectable="0" parent="1">
          <mxGeometry x="748.998949156235" y="1077.0031303665455" as="geometry">
            <mxPoint x="-9" y="-82" as="offset" />
          </mxGeometry>
        </mxCell>
        <mxCell id="H8drwvONT6HA2aSeFtqd-244" value="initiates" style="text;html=1;align=center;verticalAlign=middle;whiteSpace=wrap;rounded=0;" vertex="1" parent="1">
          <mxGeometry x="682" y="995" width="60" height="30" as="geometry" />
        </mxCell>
        <mxCell id="H8drwvONT6HA2aSeFtqd-245" value="&lt;p class=&quot;p1&quot;&gt;communicates with&lt;span style=&quot;&quot; class=&quot;Apple-converted-space&quot;&gt;&amp;nbsp;&lt;/span&gt;&lt;/p&gt;" style="text;html=1;align=center;verticalAlign=middle;whiteSpace=wrap;rounded=0;" vertex="1" parent="1">
          <mxGeometry x="770" y="666" width="103" height="50" as="geometry" />
        </mxCell>
        <mxCell id="H8drwvONT6HA2aSeFtqd-246" value="1...*" style="edgeLabel;html=1;align=center;verticalAlign=middle;resizable=0;points=[];fontSize=12;labelBackgroundColor=none;" vertex="1" connectable="0" parent="1">
          <mxGeometry x="799.998949156235" y="912.0031303665455" as="geometry">
            <mxPoint x="-9" y="-82" as="offset" />
          </mxGeometry>
        </mxCell>
        <mxCell id="H8drwvONT6HA2aSeFtqd-247" value="1" style="edgeLabel;html=1;align=center;verticalAlign=middle;resizable=0;points=[];fontSize=12;labelBackgroundColor=none;" vertex="1" connectable="0" parent="1">
          <mxGeometry x="784.998949156235" y="511.0031303665455" as="geometry">
            <mxPoint x="-9" y="-82" as="offset" />
          </mxGeometry>
        </mxCell>
        <mxCell id="H8drwvONT6HA2aSeFtqd-248" value="1" style="edgeLabel;html=1;align=center;verticalAlign=middle;resizable=0;points=[];fontSize=12;labelBackgroundColor=none;" vertex="1" connectable="0" parent="1">
          <mxGeometry x="94.99894915623497" y="606.0031303665455" as="geometry">
            <mxPoint x="-9" y="-82" as="offset" />
          </mxGeometry>
        </mxCell>
        <mxCell id="H8drwvONT6HA2aSeFtqd-252" style="edgeStyle=none;curved=1;rounded=0;orthogonalLoop=1;jettySize=auto;html=1;entryX=1.002;entryY=0.546;entryDx=0;entryDy=0;entryPerimeter=0;fontSize=12;startSize=8;endSize=8;endArrow=none;startFill=0;" edge="1" parent="1" source="20" target="21">
          <mxGeometry relative="1" as="geometry" />
        </mxCell>
      </root>
    </mxGraphModel>
  </diagram>
</mxfile>
